<svg viewBox="40 30 250 250" width="500" height="500" xmlns="http://www.w3.org/2000/svg"><defs><clipPath id="clip-f773abf213a8"><rect x="0" y="0" width="300" height="300"></rect></clipPath></defs><!----><!----><!----><g clip-path="url(#clip-f773abf213a8)"><line x1="180" y1="90" x2="150" y2="210" stroke="#f1f1f1" stroke-width="1.75" stroke-dasharray="0,0"></line><!----><line x1="180" y1="90" x2="60" y2="120" stroke="#f1f1f1" stroke-width="1.75" stroke-dasharray="0,0"></line><!----><circle cx="60" cy="120" r="4" fill="#f1f1f1" stroke="none" stroke-width="1.5"></circle><rect x="50" y="134.5" width="20" height="20" fill="#222222cc" stroke="#f1f1f1" stroke-width="1.5" rx="6"></rect><text x="60" y="145" style="font-family: monospace; font-size: 12px; dominant-baseline: middle; text-anchor: middle; font-weight: 500;" fill="#f1f1f1">a</text><circle cx="180" cy="90" r="4" fill="#f1f1f1" stroke="none" stroke-width="1.5"></circle><rect x="170" y="54.5" width="20" height="20" fill="#222222cc" stroke="#f1f1f1" stroke-width="1.5" rx="6"></rect><text x="180" y="65" style="font-family: monospace; font-size: 12px; dominant-baseline: middle; text-anchor: middle; font-weight: 500;" fill="#f1f1f1">b</text><circle cx="150" cy="210" r="4" fill="#f1f1f1" stroke="none" stroke-width="1.5"></circle><rect x="115" y="199.5" width="20" height="20" fill="#222222cc" stroke="#f1f1f1" stroke-width="1.5" rx="6"></rect><text x="125" y="210" style="font-family: monospace; font-size: 12px; dominant-baseline: middle; text-anchor: middle; font-weight: 500;" fill="#f1f1f1">c</text><path d="M 180 90 L 143.61965624455004 99.09508593886248 A 37.5 37.5 0 0 0 170.9049140611375 126.38034375544996" stroke="none" fill="none"></path><path d="M 143.61965624455004 99.09508593886248 A 37.5 37.5 0 0 0 170.9049140611375 126.38034375544996" stroke-width="1.5" stroke="#f1f1f1" stroke-dasharray="0,0" fill="none"></path><line x1="210" y1="150" x2="225" y2="240" stroke="#f1f1f1" stroke-width="1.75" stroke-dasharray="0,0"></line><!----><line x1="210" y1="150" x2="270" y2="210" stroke="#f1f1f1" stroke-width="1.75" stroke-dasharray="0,0"></line><!----><path d="M 210 150 L 224.8492424049175 164.8492424049175 A 21 21 0 1 0 213.4523787334125 170.714272400475" stroke="none" fill="none"></path><path d="M 224.8492424049175 164.8492424049175 A 21 21 0 1 0 213.4523787334125 170.714272400475" stroke-width="1.5" stroke="#f1f1f1" stroke-dasharray="6,4" fill="none"></path><circle cx="270" cy="210" r="4" fill="#f1f1f1" stroke="none" stroke-width="1.5"></circle><rect x="260" y="174.5" width="20" height="20" fill="#222222cc" stroke="#f1f1f1" stroke-width="1.5" rx="6"></rect><text x="270" y="185" style="font-family: monospace; font-size: 12px; dominant-baseline: middle; text-anchor: middle; font-weight: 500;" fill="#f1f1f1">a</text><circle cx="210" cy="150" r="4" fill="#f1f1f1" stroke="none" stroke-width="1.5"></circle><rect x="200" y="114.5" width="20" height="20" fill="#222222cc" stroke="#f1f1f1" stroke-width="1.5" rx="6"></rect><text x="210" y="125" style="font-family: monospace; font-size: 12px; dominant-baseline: middle; text-anchor: middle; font-weight: 500;" fill="#f1f1f1">b</text><circle cx="225" cy="240" r="4" fill="#f1f1f1" stroke="none" stroke-width="1.5"></circle><rect x="190" y="229.5" width="20" height="20" fill="#222222cc" stroke="#f1f1f1" stroke-width="1.5" rx="6"></rect><text x="200" y="240" style="font-family: monospace; font-size: 12px; dominant-baseline: middle; text-anchor: middle; font-weight: 500;" fill="#f1f1f1">c</text></g></svg>