<?xml version="1.0" standalone="no"?>
<!DOCTYPE svg PUBLIC "-//W3C//DTD SVG 20010904//EN"
 "http://www.w3.org/TR/2001/REC-SVG-20010904/DTD/svg10.dtd">
<svg version="1.0" xmlns="http://www.w3.org/2000/svg"
 width="3072.000000pt" height="3072.000000pt" viewBox="0 0 3072.000000 3072.000000"
 preserveAspectRatio="xMidYMid meet">
<metadata>
Created by potrace 1.14, written by Peter Selinger 2001-2017
</metadata>
<g transform="translate(0.000000,3072.000000) scale(0.100000,-0.100000)"
fill="#000000" stroke="none">
<path d="M7265 27586 c-191 -47 -351 -212 -383 -397 -7 -35 -66 -802 -133
-1704 -135 -1817 -131 -1703 -66 -1838 87 -183 254 -287 457 -287 220 0 402
126 477 330 28 74 26 55 88 900 30 410 56 754 57 764 2 11 315 -514 731 -1225
401 -684 724 -1245 719 -1247 -59 -19 -731 -445 -955 -604 l-78 -55 -82 33
c-154 62 -185 64 -941 64 -416 0 -706 -4 -746 -10 -325 -52 -601 -293 -698
-611 -65 -212 -41 -456 66 -654 21 -38 947 -1567 2060 -3397 1112 -1830 2022
-3329 2022 -3331 0 -3 -46 -7 -102 -9 -118 -6 -180 -26 -258 -83 -60 -44 -122
-128 -147 -198 -27 -76 -24 -215 6 -287 46 -111 132 -198 244 -244 50 -20 69
-21 412 -22 l360 -2 2357 -3878 c1724 -2838 2370 -3893 2406 -3932 36 -37 75
-64 139 -95 85 -41 91 -42 188 -42 92 0 106 3 167 32 137 65 -43 -220 2534
4019 l2366 3894 251 0 c274 0 315 6 407 56 65 36 140 117 176 192 22 46 29 75
32 148 7 140 -32 238 -128 328 -53 50 -159 106 -199 106 -17 0 -22 4 -19 18 3
9 920 1522 2038 3362 1119 1840 2046 3373 2062 3408 46 102 71 221 70 347 0
232 -79 428 -241 598 -125 131 -260 209 -425 247 -89 20 -110 21 -846 18
l-755 -3 -97 -34 c-53 -18 -125 -50 -160 -70 l-63 -37 -140 100 c-207 147
-495 336 -718 470 -108 65 -195 122 -193 125 1 3 333 570 737 1260 664 1136
734 1252 741 1225 4 -16 32 -374 63 -795 31 -422 61 -784 66 -805 37 -134 144
-261 278 -327 l84 -42 132 0 131 0 85 42 c112 55 186 130 241 241 39 77 42 89
45 185 3 71 -32 599 -116 1722 -100 1335 -124 1632 -141 1685 -67 223 -292
376 -525 356 -39 -3 -86 -11 -105 -17 -61 -21 -3053 -1389 -3090 -1413 -58
-38 -136 -124 -169 -186 -157 -294 10 -659 335 -736 85 -20 196 -14 274 14 30
11 352 155 714 321 362 166 661 299 663 297 4 -4 -1439 -2479 -1458 -2500 -4
-5 -96 29 -206 77 -1958 846 -4137 1179 -6293 961 -1223 -123 -2436 -428
-3558 -895 -117 -49 -226 -96 -242 -104 l-30 -15 -59 102 c-33 57 -359 614
-725 1238 -366 624 -663 1136 -661 1138 2 2 308 -136 682 -306 373 -170 694
-315 713 -321 63 -22 189 -25 257 -8 240 62 393 255 393 497 0 198 -101 365
-275 452 -188 96 -3001 1374 -3055 1389 -75 21 -173 23 -245 5z m7737 -4443
l3 -248 34 -72 c80 -172 264 -272 443 -243 166 26 310 160 348 322 5 24 10
143 10 266 l0 222 38 -5 c20 -2 93 -7 162 -10 69 -3 224 -15 345 -26 1078 -97
2133 -346 3120 -736 149 -59 478 -198 493 -208 5 -4 -4576 -7819 -4584 -7822
-9 -3 -4604 7837 -4604 7854 0 5 73 40 163 78 956 403 1984 675 3027 799 308
37 725 70 927 75 l71 1 4 -247z m-2639 -5623 c2446 -4177 2577 -4399 2643
-4466 74 -75 155 -123 254 -149 75 -20 242 -19 311 1 126 37 248 124 318 228
15 22 1170 1992 2566 4376 1396 2384 2544 4341 2551 4349 11 12 31 4 136 -60
273 -164 844 -560 834 -577 -27 -48 -6511 -10639 -6516 -10645 -5 -6 -6382
10396 -6569 10714 l-21 35 173 121 c270 189 721 476 740 470 4 -1 1165 -1980
2580 -4397z m-927 -2002 c2968 -4849 3659 -5973 3705 -6019 153 -156 391 -183
564 -64 68 46 92 77 212 275 554 914 7189 11747 7197 11752 6 4 289 8 628 8
549 0 618 -2 632 -16 9 -8 15 -19 13 -22 -5 -10 -6831 -11241 -7965 -13105
-531 -873 -969 -1584 -973 -1580 -7 8 -8862 14577 -8909 14659 -46 79 -89 74
619 74 l629 0 3648 -5962z"/>
<path d="M15327 21880 c-108 -28 -215 -107 -270 -200 -56 -97 -58 -119 -55
-697 l3 -528 32 -68 c43 -89 119 -169 202 -210 62 -30 71 -32 181 -32 110 0
119 2 181 32 83 41 159 121 202 210 l32 68 0 550 c0 504 -2 554 -18 602 -39
110 -139 213 -250 255 -59 23 -183 32 -240 18z"/>
<path d="M15295 19430 c-119 -39 -220 -133 -268 -250 -22 -55 -22 -58 -22
-611 l0 -555 38 -76 c44 -89 116 -161 205 -205 52 -26 66 -28 172 -28 111 0
118 1 182 34 85 42 159 119 201 208 l32 68 0 555 c0 554 0 555 -23 610 -66
162 -201 257 -377 266 -61 3 -94 0 -140 -16z"/>
<path d="M15317 17000 c-142 -36 -264 -159 -302 -305 -23 -90 -22 -1046 1
-1126 23 -76 49 -124 95 -174 89 -97 198 -140 334 -133 181 9 334 134 381 312
11 40 14 161 14 562 0 482 -1 516 -20 576 -37 120 -112 205 -228 261 -52 24
-79 30 -150 33 -48 2 -104 -1 -125 -6z"/>
<path d="M15310 26295 c-121 -34 -235 -136 -283 -255 -21 -53 -22 -66 -22
-380 l0 -325 36 -75 c63 -130 175 -217 312 -240 206 -36 419 101 472 306 22
84 22 584 0 669 -32 125 -136 241 -255 286 -73 28 -188 34 -260 14z"/>
<path d="M4720 14294 c-325 -88 -416 -513 -154 -727 112 -91 118 -92 514 -92
306 0 351 2 397 18 113 39 221 147 260 260 27 76 24 215 -6 287 -46 111 -133
198 -244 243 -49 21 -71 22 -382 24 -267 2 -341 -1 -385 -13z"/>
<path d="M6929 14296 c-116 -33 -222 -122 -275 -234 -37 -76 -45 -212 -19
-293 39 -119 117 -208 233 -262 l67 -32 575 -3 c413 -3 590 0 630 8 124 27
239 119 296 238 37 76 45 212 19 293 -39 119 -117 208 -233 262 l-67 32 -590
2 c-456 1 -600 -1 -636 -11z"/>
<path d="M22570 14294 c-203 -55 -338 -264 -303 -467 29 -169 148 -301 310
-342 53 -14 140 -15 640 -13 564 3 579 4 630 24 114 47 212 148 250 257 27 76
24 215 -6 287 -46 111 -132 198 -244 244 -51 21 -64 21 -637 23 -492 2 -594 0
-640 -13z"/>
<path d="M25289 14296 c-116 -33 -222 -122 -275 -234 -37 -76 -45 -212 -19
-293 39 -119 117 -208 233 -262 l67 -32 355 0 355 0 68 32 c89 43 169 119 210
202 30 62 32 71 32 181 0 109 -2 118 -32 181 -41 83 -120 159 -210 202 l-68
32 -335 2 c-250 1 -347 -1 -381 -11z"/>
<path d="M15355 4728 c-132 -18 -255 -113 -318 -245 l-32 -68 -3 -337 c-3
-283 -1 -348 13 -400 69 -273 384 -401 625 -254 67 41 142 131 173 206 21 53
22 65 22 420 l0 365 -34 72 c-82 174 -254 267 -446 241z"/>
</g>
</svg>
