<svg width="808" height="809" viewBox="0 0 808 809" fill="none" xmlns="http://www.w3.org/2000/svg">
<path d="M755.5 457L574.5 457M234 457L53 457" stroke="#B2BEC6" stroke-width="28" stroke-linecap="round" stroke-dasharray="30 50"/>
<path d="M406 57L406 463.5" stroke="#B2BEC6" stroke-width="28" stroke-linecap="round" stroke-dasharray="30 50"/>
<path d="M406 603.5L406 794" stroke="#B2BEC6" stroke-width="28" stroke-linecap="round" stroke-dasharray="30 50"/>
<path d="M406.93 721L99 196H161.863L406.93 593.148H486L406.93 721Z" fill="#243C42"/>
<path d="M657.435 189.875C587.831 134.704 497.909 104.151 404.692 104.001C311.474 103.85 221.429 134.112 151.6 189.058L178.511 216.133C240.894 167.045 321.339 140.01 404.618 140.144C487.897 140.279 568.231 167.574 630.414 216.863L657.435 189.875Z" fill="#B2BEC6"/>
<path d="M130 124.5L138 17L236.5 62" stroke="#B2BEC6" stroke-width="34" stroke-linecap="round" stroke-linejoin="round"/>
<path d="M144 25L405.5 471.5" stroke="#B2BEC6" stroke-width="38" stroke-linecap="round" stroke-linejoin="round"/>
<path d="M681.5 124.5L673.5 17L575 62" stroke="#B2BEC6" stroke-width="34" stroke-linecap="round" stroke-linejoin="round"/>
<path d="M667.5 25L406 471.5" stroke="#B2BEC6" stroke-width="38" stroke-linecap="round" stroke-linejoin="round"/>
<path d="M406.5 593.5L163.888 197.169C161.162 192.715 156.316 190 151.095 190H110.168C98.4711 190 91.275 202.794 97.3498 212.79L406.5 721.5" stroke="#B2BEC6" stroke-width="28" stroke-linecap="round" stroke-linejoin="round"/>
<path d="M407.5 594L650.112 197.669C652.838 193.215 657.684 190.5 662.905 190.5H703.832C715.529 190.5 722.725 203.294 716.65 213.29L407.5 722" stroke="#B2BEC6" stroke-width="28" stroke-linecap="round" stroke-linejoin="round"/>
</svg>
